<svg width="200" height="200" viewBox="0 0 200 200" fill="none" xmlns="http://www.w3.org/2000/svg">
<path d="M189.041 114.091L179.688 163.612L149.581 130.956L163.112 81.9649L189.041 114.091Z" fill="#1428A0"/>
<path d="M10.9593 67.2918C11.055 74.9948 11.7853 84.3081 13.9201 94.6856C15.7675 103.67 18.2615 111.472 20.7753 117.945C30.7989 107.279 40.8264 96.6163 50.8499 85.9499L36.7284 36.0049L10.9593 67.2918Z" fill="#1428A0"/>
<path d="M185.446 115.871C185.35 115.681 175.614 96.6509 152.51 77.8859C131.206 60.5808 93.8251 39.9563 36.7284 39.9563V36C62.4856 36 86.515 40.0909 108.142 48.1579C125.472 54.6226 141.301 63.6391 155.199 74.9543C178.898 94.2534 188.618 113.307 189.021 114.106L185.45 115.871H185.446Z" fill="#1428A0"/>
<path d="M161.707 89.9567C136.226 80.0619 94.5034 71.8485 40.4473 88.9241L39.2343 85.1537C63.551 77.4744 87.4806 74.1313 110.365 75.2153C128.752 76.0897 146.517 79.8087 163.16 86.2733L161.703 89.9567H161.707Z" fill="#1428A0"/>
<path d="M109.028 138.695C97.8353 138.695 86.9299 137.757 76.3677 135.878C56.3406 132.317 37.5863 125.406 20.6157 115.341L22.6627 111.946C48.1845 127.083 91.3791 142.553 152.215 130.264L153.013 134.141C137.977 137.18 123.269 138.699 109.028 138.699V138.695Z" fill="#1428A0"/>
<path d="M21.6452 114.696L21.6292 110.739C62.7569 110.558 98.4099 104.453 121.083 99.3689C146.193 93.7351 162.059 87.9271 163.563 87.1082C163.02 87.4049 162.398 88.3346 162.773 89.3989C163.12 90.3761 164.118 90.8232 164.876 90.6926L164.185 86.7956C165.374 86.5899 166.025 87.2585 166.252 87.5592L166.44 89.6363C166.073 90.3682 165.714 90.6175 162.422 91.84C160.853 92.4216 158.144 93.383 154.142 94.6529C147.841 96.6509 137.467 99.6933 123.812 102.815C100.561 108.132 63.9619 114.514 21.6492 114.7L21.6452 114.696Z" fill="#1428A0"/>
<path d="M158.735 163.996C121.134 163.996 91.5067 160.202 68.5747 152.487C46.7081 145.128 31.3296 134.228 21.5614 119.163L20.7634 117.932L21.713 116.816C22.2118 116.231 22.6867 115.558 23.1256 114.819L26.5652 116.82C26.2859 117.295 25.9906 117.75 25.6834 118.181C34.9807 131.87 49.4454 141.876 69.8556 148.744C96.0556 157.559 132.966 161.238 179.552 159.684L179.688 163.636C172.445 163.877 165.458 164 158.735 164V163.996Z" fill="#1428A0"/>
</svg>
