<svg width="32" height="32" viewBox="0 0 32 32" fill="none" xmlns="http://www.w3.org/2000/svg">
<path d="M32 18.532L30.3193 27.4307L24.9094 21.5627L27.3408 12.7592L32 18.532Z" fill="#1428A0"/>
<path d="M0 10.1226C0.0172085 11.5067 0.148424 13.1803 0.532031 15.045C0.864012 16.6596 1.31215 18.0615 1.76388 19.2246C3.56504 17.3079 5.36691 15.392 7.16807 13.4753L4.63053 4.50053L0 10.1226Z" fill="#1428A0"/>
<path d="M31.354 18.8519C31.3368 18.8178 29.5872 15.3982 25.4357 12.0263C21.6075 8.91665 14.8904 5.21057 4.63054 5.21057V4.49964C9.25892 4.49964 13.5768 5.23474 17.4631 6.68433C20.5771 7.84599 23.4215 9.4662 25.9189 11.4995C30.1773 14.9674 31.924 18.3912 31.9964 18.5348L31.3547 18.8519H31.354Z" fill="#1428A0"/>
<path d="M27.0884 14.1953C22.5095 12.4173 15.0123 10.9414 5.2988 14.0097L5.08083 13.3322C9.45036 11.9523 13.7503 11.3516 17.8625 11.5464C21.1665 11.7035 24.3587 12.3718 27.3494 13.5334L27.0877 14.1953H27.0884Z" fill="#1428A0"/>
<path d="M17.6223 22.9532C15.611 22.9532 13.6514 22.7848 11.7534 22.4471C8.1547 21.8072 4.7847 20.5652 1.7352 18.7566L2.10303 18.1467C6.68911 20.8667 14.4509 23.6464 25.3826 21.4383L25.526 22.135C22.8243 22.681 20.1813 22.954 17.6223 22.954V22.9532Z" fill="#1428A0"/>
<path d="M1.92018 18.6407L1.91731 17.9298C9.30766 17.8971 15.7143 16.8001 19.7884 15.8866C24.3006 14.8742 27.1515 13.8306 27.4218 13.6834C27.3243 13.7367 27.2124 13.9038 27.2798 14.0951C27.3422 14.2707 27.5215 14.351 27.6577 14.3275L27.5337 13.6273C27.7473 13.5903 27.8642 13.7104 27.9051 13.7645L27.9388 14.1377C27.8728 14.2692 27.8083 14.314 27.2167 14.5337C26.9349 14.6382 26.4481 14.811 25.7289 15.0392C24.5967 15.3982 22.7325 15.9449 20.2788 16.5058C16.1007 17.4613 9.52421 18.608 1.9209 18.6415L1.92018 18.6407Z" fill="#1428A0"/>
<path d="M26.5542 27.4996C19.7977 27.4996 14.4738 26.8179 10.3531 25.4316C6.42381 24.1092 3.6604 22.1506 1.90513 19.4434L1.76173 19.2223L1.93238 19.0218C2.02201 18.9166 2.10733 18.7957 2.1862 18.6628L2.80428 19.0225C2.75409 19.1078 2.70103 19.1896 2.64582 19.2671C4.31648 21.7269 6.91568 23.5248 10.5833 24.759C15.2912 26.343 21.9237 27.0041 30.2949 26.7247L30.3193 27.4349C29.0179 27.4783 27.7624 27.5004 26.5542 27.5004V27.4996Z" fill="#1428A0"/>
</svg>
